# xmcd
#
# Track frame offsets:
# 150
# 12686
# 24406
# 36725
# 50816
# 63547
# 75470
# 89231
# 108004
# 116515
# 124643
#
# Disc length: 1843 seconds
#
#
# Revision: 4
# Processed by: cddbd v1.5.1PL0 Copyright (c) Steve Scherf et al.
# Submitted via: FreeRIP 2.90 
#
DISCID=9707310b
DTITLE=Johnny Cash - Greatest Hits Vol. 1
DYEAR=1967
DGENRE=Country
TTITLE0=Jackson (with June Carter)
TTITLE1=I Walk The Line
TTITLE2=Understand Your Man
TTITLE3=Orange Blossom Special
TTITLE4=The One On The Right Is On The Left
TTITLE5=Ring Of Fire
TTITLE6=It Ain't Me, Babe
TTITLE7=The Ballad Of Ira Hayes
TTITLE8=The Rebel - Johnny Yuma
TTITLE9=Five Feet High And Rising
TTITLE10=Don't Take Your Guns To Town
EXTD=
EXTT0=
EXTT1=
EXTT2=
EXTT3=
EXTT4=
EXTT5=
EXTT6=
EXTT7=
EXTT8=
EXTT9=
EXTT10=
PLAYORDER=
